<svg width="34" height="20" viewBox="0 0 34 20" fill="none" xmlns="http://www.w3.org/2000/svg">
<path d="M11.3598 14.4981V17.498C11.3605 17.8131 11.2419 18.1203 11.0207 18.3761C10.7996 18.6319 10.4871 18.8233 10.1278 18.923C9.7684 19.0227 9.38042 19.0257 9.01892 18.9315C8.65741 18.8374 8.34077 18.6509 8.11395 18.3985L1.36062 10.8996C1.12654 10.6401 1 10.3244 1 10C1 9.67557 1.12654 9.3599 1.36062 9.10038L8.11395 1.60151C8.34044 1.34951 8.65652 1.16317 9.01741 1.06889C9.3783 0.974607 9.7657 0.977158 10.1247 1.07619C10.4838 1.17522 10.7963 1.3657 11.0179 1.62065C11.2396 1.87561 11.3592 2.18211 11.3598 2.49674L11.3598 8.49829C11.3598 8.89587 11.5497 9.27717 11.8877 9.5583C12.2257 9.83943 12.6841 9.99737 13.1621 9.99737L33 9.99737" stroke="white" stroke-width="1.5" stroke-linecap="round" stroke-linejoin="round"/>
</svg>
